<svg width="45" height="32" viewBox="0 0 45 32" fill="none" xmlns="http://www.w3.org/2000/svg">
<g clip-path="url(#clip0_637_207)">
<path d="M41.0827 0.695312H3.91768C1.86511 0.695312 0.201172 2.35941 0.201172 4.41219V27.8872C0.201172 29.94 1.86511 31.6041 3.91768 31.6041H41.0827C43.1353 31.6041 44.7993 29.94 44.7993 27.8872V4.41219C44.7993 2.35941 43.1353 0.695312 41.0827 0.695312Z" fill="url(#paint0_linear_637_207)"/>
<path d="M41.0827 0.695312H3.91768C1.86511 0.695312 0.201172 2.35941 0.201172 4.41219V27.8872C0.201172 29.94 1.86511 31.6041 3.91768 31.6041H41.0827C43.1353 31.6041 44.7993 29.94 44.7993 27.8872V4.41219C44.7993 2.35941 43.1353 0.695312 41.0827 0.695312Z" stroke="black" stroke-width="0.391211"/>
<path d="M41.0827 0.695312H3.91768C1.86511 0.695312 0.201172 2.35941 0.201172 4.41219V27.8872C0.201172 29.94 1.86511 31.6041 3.91768 31.6041H41.0827C43.1353 31.6041 44.7993 29.94 44.7993 27.8872V4.41219C44.7993 2.35941 43.1353 0.695312 41.0827 0.695312Z" stroke="black" stroke-width="0.391211"/>
<path d="M14.5898 25.5436C14.5898 25.1429 14.8524 24.8137 15.2814 24.8137C15.6914 24.8137 15.9682 25.1287 15.9682 25.5436C15.9682 25.9585 15.6914 26.2735 15.2814 26.2735C14.8524 26.2735 14.5898 25.9443 14.5898 25.5436ZM16.4355 25.5436V24.4038H15.9398V24.6805C15.7826 24.4753 15.544 24.3464 15.2197 24.3464C14.5805 24.3464 14.0793 24.8476 14.0793 25.5436C14.0793 26.2402 14.5805 26.7408 15.2197 26.7408C15.544 26.7408 15.7826 26.612 15.9398 26.4067V26.6835H16.4355V25.5436ZM33.1862 25.5436C33.1862 25.1429 33.4488 24.8137 33.8779 24.8137C34.2884 24.8137 34.5647 25.1287 34.5647 25.5436C34.5647 25.9585 34.2884 26.2735 33.8779 26.2735C33.4488 26.2735 33.1862 25.9443 33.1862 25.5436ZM35.0325 25.5436V23.4883H34.5363V24.6805C34.3791 24.4753 34.1405 24.3464 33.8162 24.3464C33.177 24.3464 32.6758 24.8476 32.6758 25.5436C32.6758 26.2402 33.177 26.7408 33.8162 26.7408C34.1405 26.7408 34.3791 26.612 34.5363 26.4067V26.6835H35.0325V25.5436ZM22.5884 24.7903C22.9078 24.7903 23.1131 24.9906 23.1655 25.3433H21.9825C22.0355 25.0141 22.2353 24.7903 22.5884 24.7903ZM22.5983 24.3464C21.9301 24.3464 21.4628 24.8328 21.4628 25.5436C21.4628 26.2686 21.9492 26.7408 22.6316 26.7408C22.975 26.7408 23.2894 26.6551 23.5662 26.4214L23.3232 26.054C23.1322 26.2063 22.8887 26.2926 22.6599 26.2926C22.3406 26.2926 22.0496 26.1447 21.9781 25.7341H23.671C23.6759 25.6725 23.6808 25.6102 23.6808 25.5436C23.6759 24.8328 23.237 24.3464 22.5983 24.3464ZM28.5837 25.5436C28.5837 25.1429 28.8463 24.8137 29.2753 24.8137C29.6853 24.8137 29.9621 25.1287 29.9621 25.5436C29.9621 25.9585 29.6853 26.2735 29.2753 26.2735C28.8463 26.2735 28.5837 25.9443 28.5837 25.5436ZM30.4294 25.5436V24.4038H29.9337V24.6805C29.7759 24.4753 29.5379 24.3464 29.2136 24.3464C28.5744 24.3464 28.0732 24.8476 28.0732 25.5436C28.0732 26.2402 28.5744 26.7408 29.2136 26.7408C29.5379 26.7408 29.7759 26.612 29.9337 26.4067V26.6835H30.4294V25.5436ZM25.7842 25.5436C25.7842 26.2353 26.2657 26.7408 27.0005 26.7408C27.3439 26.7408 27.5726 26.6644 27.8205 26.469L27.5824 26.0682C27.3963 26.202 27.2009 26.2735 26.9858 26.2735C26.59 26.2686 26.299 25.9825 26.299 25.5436C26.299 25.1047 26.59 24.8186 26.9858 24.8137C27.2009 24.8137 27.3963 24.8853 27.5824 25.019L27.8205 24.6183C27.5726 24.4228 27.3439 24.3464 27.0005 24.3464C26.2657 24.3464 25.7842 24.852 25.7842 25.5436ZM32.1752 24.3464C31.8892 24.3464 31.703 24.4802 31.5742 24.6805V24.4038H31.0828V26.6835H31.5791V25.4055C31.5791 25.0283 31.7412 24.8186 32.0655 24.8186C32.1659 24.8186 32.2708 24.8328 32.3756 24.876L32.5284 24.4087C32.4187 24.3655 32.2756 24.3464 32.1752 24.3464ZM18.8872 24.585C18.6486 24.4278 18.32 24.3464 17.9575 24.3464C17.3799 24.3464 17.0082 24.6232 17.0082 25.0763C17.0082 25.4481 17.2849 25.6774 17.7948 25.7489L18.029 25.7822C18.3009 25.8204 18.4292 25.8919 18.4292 26.0207C18.4292 26.1971 18.2479 26.2975 17.9094 26.2975C17.5661 26.2975 17.3182 26.1878 17.1512 26.059L16.9175 26.4449C17.1894 26.6453 17.5328 26.7408 17.9045 26.7408C18.5629 26.7408 18.9445 26.4307 18.9445 25.9967C18.9445 25.596 18.6442 25.3864 18.148 25.3149L17.9144 25.281C17.6998 25.2526 17.5278 25.2101 17.5278 25.0572C17.5278 24.8901 17.69 24.7903 17.9619 24.7903C18.2528 24.7903 18.5345 24.9 18.6726 24.9857L18.8872 24.585ZM25.2831 24.3464C24.997 24.3464 24.8109 24.4802 24.6826 24.6805V24.4038H24.1913V26.6835H24.6869V25.4055C24.6869 25.0283 24.8491 24.8186 25.1734 24.8186C25.2738 24.8186 25.3786 24.8328 25.4834 24.876L25.6363 24.4087C25.5265 24.3655 25.3835 24.3464 25.2831 24.3464ZM21.0528 24.4038H20.2421V23.7121H19.741V24.4038H19.2786V24.8569H19.741V25.8968C19.741 26.4258 19.9462 26.7408 20.5325 26.7408C20.7476 26.7408 20.9955 26.6742 21.1527 26.5645L21.0097 26.1398C20.8617 26.2255 20.6996 26.2686 20.5708 26.2686C20.3229 26.2686 20.2421 26.1157 20.2421 25.887V24.8569H21.0528V24.4038ZM13.641 26.6835V25.2526C13.641 24.7138 13.2976 24.3513 12.744 24.3464C12.4531 24.3415 12.1528 24.4322 11.9426 24.7521C11.7854 24.4993 11.5376 24.3464 11.1893 24.3464C10.9458 24.3464 10.7078 24.418 10.5216 24.6849V24.4038H10.0254V26.6835H10.526V25.4197C10.526 25.0239 10.7455 24.8137 11.0844 24.8137C11.4136 24.8137 11.5801 25.0283 11.5801 25.4148V26.6835H12.0813V25.4197C12.0813 25.0239 12.31 24.8137 12.6392 24.8137C12.9777 24.8137 13.1398 25.0283 13.1398 25.4148V26.6835H13.641Z" fill="#231F20"/>
<path d="M26.2558 20.5341H18.7432V7.03125H26.2558V20.5341Z" fill="#FF5F00"/>
<path d="M19.2248 13.7828C19.2248 11.0437 20.5072 8.60377 22.5041 7.03141C21.0438 5.8816 19.2008 5.19531 17.1979 5.19531C12.4561 5.19531 8.6123 9.04001 8.6123 13.7828C8.6123 18.5256 12.4561 22.3703 17.1979 22.3703C19.2008 22.3703 21.0438 21.684 22.5041 20.5342C20.5072 18.9618 19.2248 16.5219 19.2248 13.7828Z" fill="#EB001B"/>
<path d="M36.3885 13.7828C36.3885 18.5256 32.5447 22.3703 27.8029 22.3703C25.8 22.3703 23.957 21.684 22.4961 20.5342C24.4936 18.9618 25.7759 16.5219 25.7759 13.7828C25.7759 11.0437 24.4936 8.60377 22.4961 7.03141C23.957 5.8816 25.8 5.19531 27.8029 5.19531C32.5447 5.19531 36.3885 9.04001 36.3885 13.7828Z" fill="#F79E1B"/>
</g>
<defs>
<linearGradient id="paint0_linear_637_207" x1="22.3046" y1="2.45594" x2="22.3046" y2="31.7997" gradientUnits="userSpaceOnUse">
<stop stop-color="#F5F5F5"/>
<stop offset="1" stop-color="white"/>
</linearGradient>
<clipPath id="clip0_637_207">
<rect width="45" height="31.3" fill="white" transform="translate(0 0.5)"/>
</clipPath>
</defs>
</svg>
