<svg width="45" height="32" viewBox="0 0 45 32" fill="none" xmlns="http://www.w3.org/2000/svg">
<g clip-path="url(#clip0_637_215)">
<path d="M41.0827 0.695312H3.91768C1.86511 0.695312 0.201172 2.35941 0.201172 4.41219V27.8872C0.201172 29.94 1.86511 31.6041 3.91768 31.6041H41.0827C43.1353 31.6041 44.7993 29.94 44.7993 27.8872V4.41219C44.7993 2.35941 43.1353 0.695312 41.0827 0.695312Z" fill="black"/>
<path d="M41.0827 0.695312H3.91768C1.86511 0.695312 0.201172 2.35941 0.201172 4.41219V27.8872C0.201172 29.94 1.86511 31.6041 3.91768 31.6041H41.0827C43.1353 31.6041 44.7993 29.94 44.7993 27.8872V4.41219C44.7993 2.35941 43.1353 0.695312 41.0827 0.695312Z" stroke="black" stroke-width="0.391211"/>
<path d="M41.0827 0.695312H3.91768C1.86511 0.695312 0.201172 2.35941 0.201172 4.41219V27.8872C0.201172 29.94 1.86511 31.6041 3.91768 31.6041H41.0827C43.1353 31.6041 44.7993 29.94 44.7993 27.8872V4.41219C44.7993 2.35941 43.1353 0.695312 41.0827 0.695312Z" stroke="black" stroke-width="0.391211"/>
<path d="M10.7792 10.6821C10.3391 11.1975 9.63482 11.604 8.93056 11.5459C8.8425 10.849 9.18731 10.1086 9.5908 9.65126C10.031 9.12135 10.8013 8.74387 11.4248 8.71484C11.4982 9.44077 11.2121 10.1521 10.7792 10.6821ZM11.4174 11.6838C10.3978 11.6258 9.52477 12.2573 9.0406 12.2573C8.54909 12.2573 7.80813 11.7129 7.00118 11.7274C5.95211 11.7419 4.97643 12.3299 4.4409 13.2663C3.34047 15.1392 4.15477 17.9122 5.21851 19.4366C5.73937 20.1916 6.36292 21.0191 7.18458 20.9901C7.96219 20.961 8.27031 20.4892 9.20933 20.4892C10.1557 20.4892 10.4271 20.9901 11.2487 20.9756C12.0997 20.961 12.6352 20.2206 13.1561 19.4656C13.7503 18.6091 13.9924 17.7743 14.0071 17.7307C13.9924 17.7162 12.3638 17.0992 12.3492 15.2408C12.3345 13.6874 13.633 12.9469 13.6916 12.9034C12.958 11.829 11.8136 11.7129 11.4174 11.6838ZM17.3083 9.57868V20.8957H19.0836V17.0266H21.5412C23.7861 17.0266 25.3633 15.5022 25.3633 13.2954C25.3633 11.0886 23.8154 9.57868 21.5999 9.57868H17.3083ZM19.0836 11.0596H21.1304C22.671 11.0596 23.5513 11.8726 23.5513 13.3026C23.5513 14.7327 22.6709 15.553 21.123 15.553H19.0836V11.0596ZM28.6058 20.9828C29.7209 20.9828 30.7553 20.4239 31.2248 19.5383H31.2615V20.8957H32.9048V15.2626C32.9048 13.6293 31.5843 12.5767 29.5522 12.5767C27.6668 12.5767 26.2729 13.6438 26.2216 15.1102H27.8209C27.9529 14.4133 28.6058 13.956 29.5008 13.956C30.5866 13.956 31.1954 14.4568 31.1954 15.3788V16.003L28.98 16.1337C26.9185 16.2571 25.8035 17.0919 25.8035 18.5437C25.8035 20.0101 26.9552 20.9828 28.6058 20.9828ZM29.0827 19.6399C28.1363 19.6399 27.5348 19.1898 27.5348 18.5002C27.5348 17.7888 28.1143 17.375 29.2221 17.3097L31.1954 17.1863V17.8251C31.1954 18.8849 30.2858 19.6399 29.0827 19.6399ZM35.0982 23.9736C36.8295 23.9736 37.6439 23.3203 38.3554 21.3385L41.4733 12.6856H39.6686L37.5778 19.3713H37.5412L35.4504 12.6856H33.5943L36.6021 20.9247L36.4407 21.4256C36.1693 22.2749 35.7292 22.6016 34.9442 22.6016C34.8048 22.6016 34.5334 22.5871 34.4233 22.5726V23.93C34.526 23.9591 34.9662 23.9736 35.0982 23.9736Z" fill="white"/>
</g>
<defs>
<clipPath id="clip0_637_215">
<rect width="45" height="31.3" fill="white" transform="translate(0 0.5)"/>
</clipPath>
</defs>
</svg>
