<svg width="45" height="32" viewBox="0 0 45 32" fill="none" xmlns="http://www.w3.org/2000/svg">
<g clip-path="url(#clip0_637_220)">
<path d="M41.0827 0.695312H3.91768C1.86511 0.695312 0.201172 2.35941 0.201172 4.41219V27.8872C0.201172 29.94 1.86511 31.6041 3.91768 31.6041H41.0827C43.1353 31.6041 44.7993 29.94 44.7993 27.8872V4.41219C44.7993 2.35941 43.1353 0.695312 41.0827 0.695312Z" fill="#26A6D1"/>
<path d="M41.0827 0.695312H3.91768C1.86511 0.695312 0.201172 2.35941 0.201172 4.41219V27.8872C0.201172 29.94 1.86511 31.6041 3.91768 31.6041H41.0827C43.1353 31.6041 44.7993 29.94 44.7993 27.8872V4.41219C44.7993 2.35941 43.1353 0.695312 41.0827 0.695312Z" stroke="black" stroke-width="0.391211"/>
<path d="M41.0827 0.695312H3.91768C1.86511 0.695312 0.201172 2.35941 0.201172 4.41219V27.8872C0.201172 29.94 1.86511 31.6041 3.91768 31.6041H41.0827C43.1353 31.6041 44.7993 29.94 44.7993 27.8872V4.41219C44.7993 2.35941 43.1353 0.695312 41.0827 0.695312Z" stroke="black" stroke-width="0.391211"/>
<path d="M7.15927 11.4531L2.74414 21.2208H8.02968L8.68492 19.6635H10.1827L10.8379 21.2208H16.6558V20.0322L17.1742 21.2208H20.1837L20.7021 20.0071V21.2208H32.8018L34.273 19.7039L35.6506 21.2208L41.8653 21.2334L37.4362 16.3642L41.8653 11.4531H35.747L34.3148 12.942L32.9806 11.4531H19.8178L18.6875 13.9742L17.5307 11.4531H12.2562V12.6013L11.6694 11.4531H7.15927ZM8.18202 12.8402H10.7584L13.687 19.4637V12.8402H16.5093L18.7713 17.5892L20.856 12.8402H23.6642V19.8491H21.9555L21.9415 14.3569L19.4503 19.8491H17.9217L15.4166 14.3569V19.8491H11.9013L11.2348 18.2778H7.63432L6.96926 19.8478H5.08577L8.18202 12.8402ZM25.2276 12.8402H32.1758L34.3009 15.135L36.4945 12.8402H38.6197L35.3908 16.3629L38.6197 19.845H36.3981L34.273 17.5235L32.0682 19.845H25.2276V12.8402ZM9.43534 14.026L8.24911 16.8252H10.6202L9.43534 14.026ZM26.9434 14.2914V15.5709H30.7339V16.9969H26.9434V18.3938H31.1951L33.1706 16.3364L31.2789 14.2901H26.9434V14.2914Z" fill="black"/>
</g>
<defs>
<clipPath id="clip0_637_220">
<rect width="45" height="31.3" fill="white" transform="translate(0 0.5)"/>
</clipPath>
</defs>
</svg>
