<svg width="45" height="32" viewBox="0 0 45 32" fill="none" xmlns="http://www.w3.org/2000/svg">
<g clip-path="url(#clip0_637_225)">
<path d="M41.0827 0.695312H3.91768C1.86511 0.695312 0.201172 2.35941 0.201172 4.41219V27.8872C0.201172 29.94 1.86511 31.6041 3.91768 31.6041H41.0827C43.1353 31.6041 44.7993 29.94 44.7993 27.8872V4.41219C44.7993 2.35941 43.1353 0.695312 41.0827 0.695312Z" fill="url(#paint0_linear_637_225)"/>
<path d="M41.0827 0.695312H3.91768C1.86511 0.695312 0.201172 2.35941 0.201172 4.41219V27.8872C0.201172 29.94 1.86511 31.6041 3.91768 31.6041H41.0827C43.1353 31.6041 44.7993 29.94 44.7993 27.8872V4.41219C44.7993 2.35941 43.1353 0.695312 41.0827 0.695312Z" stroke="black" stroke-width="0.391211"/>
<path d="M41.0827 0.695312H3.91768C1.86511 0.695312 0.201172 2.35941 0.201172 4.41219V27.8872C0.201172 29.94 1.86511 31.6041 3.91768 31.6041H41.0827C43.1353 31.6041 44.7993 29.94 44.7993 27.8872V4.41219C44.7993 2.35941 43.1353 0.695312 41.0827 0.695312Z" stroke="black" stroke-width="0.391211"/>
<path d="M8.77751 20.7111C8.77751 20.1728 8.4933 20.2083 8.22074 20.2025V20.0469C8.45692 20.0584 8.69908 20.0584 8.93576 20.0584C9.19024 20.0584 9.53576 20.0469 9.98436 20.0469C11.5534 20.0469 12.4079 21.0818 12.4079 22.1416C12.4079 22.7343 12.0567 24.2242 9.91144 24.2242C9.6025 24.2242 9.31739 24.2124 9.0327 24.2124C8.76014 24.2124 8.4933 24.2183 8.2207 24.2242V24.0688C8.58406 24.0327 8.76014 24.0207 8.77751 23.6137V20.7111ZM9.37157 23.5182C9.37157 23.979 9.70519 24.0327 10.002 24.0327C11.3113 24.0327 11.7412 23.0571 11.7412 22.1653C11.7412 21.0466 11.0138 20.2388 9.84446 20.2388C9.59569 20.2388 9.48134 20.2564 9.37161 20.2627L9.37157 23.5182Z" fill="black"/>
<path d="M12.6211 24.0686H12.7359C12.9053 24.0686 13.0267 24.0686 13.0267 23.8706V22.2491C13.0267 21.9861 12.9359 21.9495 12.7117 21.8305V21.7345C12.9963 21.6501 13.3361 21.5372 13.3599 21.5191C13.4027 21.4952 13.4388 21.4889 13.4692 21.4889C13.4992 21.4889 13.5117 21.525 13.5117 21.5731V23.8706C13.5117 24.0686 13.645 24.0686 13.8147 24.0686H13.9176V24.2242C13.7113 24.2242 13.4992 24.2122 13.2815 24.2122C13.0634 24.2122 12.845 24.2181 12.6211 24.2242L12.6211 24.0686ZM13.2693 20.5675C13.1116 20.5675 12.9726 20.4239 12.9726 20.2683C12.9726 20.1184 13.118 19.9805 13.2693 19.9805C13.4264 19.9805 13.5664 20.1067 13.5664 20.2683C13.5664 20.43 13.4326 20.5675 13.2693 20.5675Z" fill="black"/>
<path d="M14.4927 22.2842C14.4927 22.0629 14.4257 22.0033 14.1415 21.8895V21.7759C14.402 21.6922 14.6501 21.6143 14.9411 21.4883C14.9592 21.4883 14.977 21.5005 14.977 21.5481V21.9374C15.323 21.6922 15.62 21.4883 16.0266 21.4883C16.5411 21.4883 16.7228 21.8595 16.7228 22.3261V23.87C16.7228 24.068 16.8561 24.068 17.026 24.068H17.1351V24.2236C16.9224 24.2236 16.7105 24.2116 16.4928 24.2116C16.2744 24.2116 16.056 24.2175 15.8381 24.2236V24.068H15.947C16.1171 24.068 16.2376 24.068 16.2376 23.87V22.3205C16.2376 21.9789 16.0266 21.8116 15.6806 21.8116C15.4869 21.8116 15.1778 21.9672 14.977 22.099V23.8699C14.977 24.068 15.111 24.068 15.2809 24.068H15.3898V24.2236C15.1778 24.2236 14.9653 24.2116 14.7472 24.2116C14.5293 24.2116 14.3107 24.2174 14.0928 24.2236V24.068H14.2021C14.3717 24.068 14.4927 24.068 14.4927 23.8699L14.4927 22.2842Z" fill="black"/>
<path d="M17.5964 22.5718C17.5838 22.6258 17.5838 22.7154 17.5964 22.919C17.6321 23.4873 18.0027 23.954 18.4867 23.954C18.8203 23.954 19.0815 23.7745 19.3054 23.5533L19.3899 23.6372C19.111 24.0021 18.7657 24.3132 18.269 24.3132C17.3053 24.3132 17.1113 23.3914 17.1113 23.0087C17.1113 21.8355 17.9112 21.4883 18.3351 21.4883C18.8263 21.4883 19.3538 21.7933 19.3595 22.4277C19.3595 22.4641 19.3595 22.4995 19.3538 22.5359L19.2989 22.5718H17.5964ZM18.6692 22.3801C18.8203 22.3801 18.8383 22.3022 18.8383 22.2307C18.8383 21.9254 18.6505 21.68 18.3109 21.68C17.9416 21.68 17.6871 21.9489 17.6144 22.3801H18.6692Z" fill="black"/>
<path d="M19.499 24.068H19.6627C19.8319 24.068 19.9531 24.068 19.9531 23.87V22.1887C19.9531 22.0033 19.7293 21.9672 19.6381 21.9193V21.8299C20.0805 21.6441 20.3231 21.4883 20.3782 21.4883C20.4141 21.4883 20.4319 21.5064 20.4319 21.5664V22.1049H20.4447C20.5959 21.8717 20.8509 21.4883 21.2201 21.4883C21.3717 21.4883 21.5654 21.5899 21.5654 21.8055C21.5654 21.9672 21.4506 22.1112 21.281 22.1112C21.0923 22.1112 21.0923 21.9672 20.8806 21.9672C20.7775 21.9672 20.4384 22.1049 20.4384 22.4641V23.87C20.4384 24.068 20.5593 24.068 20.7292 24.068H21.0683V24.2236C20.7349 24.2174 20.4814 24.2116 20.2202 24.2116C19.9719 24.2116 19.7172 24.2175 19.4991 24.2236L19.499 24.068Z" fill="black"/>
<path d="M21.832 23.3913C21.9109 23.7865 22.153 24.1217 22.5957 24.1217C22.9524 24.1217 23.0859 23.9064 23.0859 23.6968C23.0859 22.9906 21.7652 23.2179 21.7652 22.2546C21.7652 21.9193 22.0382 21.4883 22.7045 21.4883C22.8982 21.4883 23.1586 21.5425 23.3948 21.6624L23.4378 22.2722H23.2981C23.2377 21.8956 23.0258 21.68 22.6375 21.68C22.3951 21.68 22.1651 21.8178 22.1651 22.0749C22.1651 22.7757 23.5709 22.5596 23.5709 23.4991C23.5709 23.894 23.2496 24.3132 22.5284 24.3132C22.286 24.3132 22.0014 24.2295 21.7894 24.11L21.7227 23.4216L21.832 23.3913Z" fill="black"/>
<path d="M29.0427 21.1304H28.8915C28.7763 20.4305 28.2733 20.1489 27.5948 20.1489C26.8974 20.1489 25.8854 20.6095 25.8854 22.0457C25.8854 23.2554 26.7586 24.1228 27.6915 24.1228C28.2913 24.1228 28.7887 23.7159 28.9098 23.0874L29.0488 23.1231L28.9098 23.9968C28.6553 24.1528 27.9705 24.3143 27.5701 24.3143C26.1524 24.3143 25.2559 23.4105 25.2559 22.0639C25.2559 20.8371 26.3646 19.957 27.5523 19.957C28.043 19.957 28.5156 20.1132 28.9823 20.2749L29.0427 21.1304Z" fill="black"/>
<path d="M29.2618 24.0694H29.3765C29.5464 24.0694 29.6681 24.0694 29.6681 23.8714V20.5385C29.6681 20.1493 29.5771 20.1373 29.3466 20.0716V19.9759C29.589 19.8982 29.8434 19.7903 29.9708 19.7183C30.0369 19.6826 30.0858 19.6523 30.1036 19.6523C30.1407 19.6523 30.1528 19.6885 30.1528 19.7365V23.8714C30.1528 24.0694 30.2859 24.0694 30.4558 24.0694H30.558V24.225C30.3529 24.225 30.1407 24.213 29.9223 24.213C29.7045 24.213 29.4863 24.2189 29.2617 24.225L29.2618 24.0694Z" fill="black"/>
<path d="M33.1525 23.8937C33.1525 24.0019 33.2188 24.0078 33.3217 24.0078C33.3946 24.0078 33.4852 24.0019 33.5643 24.0019V24.1279C33.3034 24.1516 32.8065 24.2774 32.6912 24.313L32.6608 24.2949V23.8107C32.2978 24.1037 32.0186 24.313 31.588 24.313C31.2608 24.313 30.9215 24.1037 30.9215 23.6014V22.0688C30.9215 21.9132 30.8975 21.7635 30.5586 21.7337V21.6199C30.777 21.6141 31.2608 21.5782 31.3399 21.5782C31.4072 21.5782 31.4072 21.6199 31.4072 21.7516V23.2952C31.4072 23.4751 31.4072 23.9897 31.934 23.9897C32.14 23.9897 32.4125 23.8341 32.6668 23.6253V22.0146C32.6668 21.8954 32.3762 21.8297 32.1585 21.7696V21.6619C32.7032 21.6258 33.0432 21.5781 33.1033 21.5781C33.1524 21.5781 33.1524 21.6199 33.1524 21.6861L33.1525 23.8937Z" fill="black"/>
<path d="M34.3581 21.9207C34.6002 21.7173 34.9274 21.4897 35.261 21.4897C35.9641 21.4897 36.3878 22.0948 36.3878 22.7466C36.3878 23.5305 35.8063 24.3146 34.9393 24.3146C34.4911 24.3146 34.2549 24.1708 34.0971 24.1053L33.9156 24.2425L33.7887 24.1771C33.8424 23.824 33.8733 23.4767 33.8733 23.1119V20.5385C33.8733 20.1493 33.7818 20.1373 33.5518 20.0716V19.9759C33.7949 19.8982 34.0486 19.7903 34.176 19.7183C34.2428 19.6826 34.291 19.6523 34.3098 19.6523C34.3459 19.6523 34.358 19.6885 34.358 19.7365L34.3581 21.9207ZM34.3581 23.5483C34.3581 23.7759 34.5759 24.1593 34.9821 24.1593C35.6305 24.1593 35.9031 23.5305 35.9031 22.9977C35.9031 22.3515 35.4067 21.813 34.9338 21.813C34.709 21.813 34.5215 21.9569 34.358 22.0948L34.3581 23.5483Z" fill="black"/>
<path d="M8.77751 20.7111C8.77751 20.1728 8.4933 20.2083 8.22074 20.2025V20.0469C8.45692 20.0584 8.69908 20.0584 8.93576 20.0584C9.19024 20.0584 9.53576 20.0469 9.98436 20.0469C11.5534 20.0469 12.4079 21.0818 12.4079 22.1416C12.4079 22.7343 12.0567 24.2242 9.91144 24.2242C9.6025 24.2242 9.31739 24.2124 9.0327 24.2124C8.76014 24.2124 8.4933 24.2183 8.2207 24.2242V24.0688C8.58406 24.0327 8.76014 24.0207 8.77751 23.6137V20.7111ZM9.37157 23.5182C9.37157 23.979 9.70519 24.0327 10.002 24.0327C11.3113 24.0327 11.7412 23.0571 11.7412 22.1653C11.7412 21.0466 11.0138 20.2388 9.84446 20.2388C9.59569 20.2388 9.48134 20.2564 9.37161 20.2627L9.37157 23.5182Z" fill="black"/>
<path d="M12.6211 24.0686H12.7359C12.9053 24.0686 13.0267 24.0686 13.0267 23.8706V22.2491C13.0267 21.9861 12.9359 21.9495 12.7117 21.8305V21.7345C12.9963 21.6501 13.3361 21.5372 13.3599 21.5191C13.4027 21.4952 13.4388 21.4889 13.4692 21.4889C13.4992 21.4889 13.5117 21.525 13.5117 21.5731V23.8706C13.5117 24.0686 13.645 24.0686 13.8147 24.0686H13.9176V24.2242C13.7113 24.2242 13.4992 24.2122 13.2815 24.2122C13.0634 24.2122 12.845 24.2181 12.6211 24.2242L12.6211 24.0686ZM13.2693 20.5675C13.1116 20.5675 12.9726 20.4239 12.9726 20.2683C12.9726 20.1184 13.118 19.9805 13.2693 19.9805C13.4264 19.9805 13.5664 20.1067 13.5664 20.2683C13.5664 20.43 13.4326 20.5675 13.2693 20.5675Z" fill="black"/>
<path d="M14.4927 22.2842C14.4927 22.0629 14.4257 22.0033 14.1415 21.8895V21.7759C14.402 21.6922 14.6501 21.6143 14.9411 21.4883C14.9592 21.4883 14.977 21.5005 14.977 21.5481V21.9374C15.323 21.6922 15.62 21.4883 16.0266 21.4883C16.5411 21.4883 16.7228 21.8595 16.7228 22.3261V23.87C16.7228 24.068 16.8561 24.068 17.026 24.068H17.1351V24.2236C16.9224 24.2236 16.7105 24.2116 16.4928 24.2116C16.2744 24.2116 16.056 24.2175 15.8381 24.2236V24.068H15.947C16.1171 24.068 16.2376 24.068 16.2376 23.87V22.3205C16.2376 21.9789 16.0266 21.8116 15.6806 21.8116C15.4869 21.8116 15.1778 21.9672 14.977 22.099V23.8699C14.977 24.068 15.111 24.068 15.2809 24.068H15.3898V24.2236C15.1778 24.2236 14.9653 24.2116 14.7472 24.2116C14.5293 24.2116 14.3107 24.2174 14.0928 24.2236V24.068H14.2021C14.3717 24.068 14.4927 24.068 14.4927 23.8699L14.4927 22.2842Z" fill="black"/>
<path d="M17.5964 22.5718C17.5838 22.6258 17.5838 22.7154 17.5964 22.919C17.6321 23.4873 18.0027 23.954 18.4867 23.954C18.8203 23.954 19.0815 23.7745 19.3054 23.5533L19.3899 23.6372C19.111 24.0021 18.7657 24.3132 18.269 24.3132C17.3053 24.3132 17.1113 23.3914 17.1113 23.0087C17.1113 21.8355 17.9112 21.4883 18.3351 21.4883C18.8263 21.4883 19.3538 21.7933 19.3595 22.4277C19.3595 22.4641 19.3595 22.4995 19.3538 22.5359L19.2989 22.5718H17.5964ZM18.6692 22.3801C18.8203 22.3801 18.8383 22.3022 18.8383 22.2307C18.8383 21.9254 18.6505 21.68 18.3109 21.68C17.9416 21.68 17.6871 21.9489 17.6144 22.3801H18.6692Z" fill="black"/>
<path d="M19.499 24.068H19.6627C19.8319 24.068 19.9531 24.068 19.9531 23.87V22.1887C19.9531 22.0033 19.7293 21.9672 19.6381 21.9193V21.8299C20.0805 21.6441 20.3231 21.4883 20.3782 21.4883C20.4141 21.4883 20.4319 21.5064 20.4319 21.5664V22.1049H20.4447C20.5959 21.8717 20.8509 21.4883 21.2201 21.4883C21.3717 21.4883 21.5654 21.5899 21.5654 21.8055C21.5654 21.9672 21.4506 22.1112 21.281 22.1112C21.0923 22.1112 21.0923 21.9672 20.8806 21.9672C20.7775 21.9672 20.4384 22.1049 20.4384 22.4641V23.87C20.4384 24.068 20.5593 24.068 20.7292 24.068H21.0683V24.2236C20.7349 24.2174 20.4814 24.2116 20.2202 24.2116C19.9719 24.2116 19.7172 24.2175 19.4991 24.2236L19.499 24.068Z" fill="black"/>
<path d="M21.832 23.3913C21.9109 23.7865 22.153 24.1217 22.5957 24.1217C22.9524 24.1217 23.0859 23.9064 23.0859 23.6968C23.0859 22.9906 21.7652 23.2179 21.7652 22.2546C21.7652 21.9193 22.0382 21.4883 22.7045 21.4883C22.8982 21.4883 23.1586 21.5425 23.3948 21.6624L23.4378 22.2722H23.2981C23.2377 21.8956 23.0258 21.68 22.6375 21.68C22.3951 21.68 22.1651 21.8178 22.1651 22.0749C22.1651 22.7757 23.5709 22.5596 23.5709 23.4991C23.5709 23.894 23.2496 24.3132 22.5284 24.3132C22.286 24.3132 22.0014 24.2295 21.7894 24.11L21.7227 23.4216L21.832 23.3913Z" fill="black"/>
<path d="M29.0427 21.1304H28.8915C28.7763 20.4305 28.2733 20.1489 27.5948 20.1489C26.8974 20.1489 25.8854 20.6095 25.8854 22.0457C25.8854 23.2554 26.7586 24.1228 27.6915 24.1228C28.2913 24.1228 28.7887 23.7159 28.9098 23.0874L29.0488 23.1231L28.9098 23.9968C28.6553 24.1528 27.9705 24.3143 27.5701 24.3143C26.1524 24.3143 25.2559 23.4105 25.2559 22.0639C25.2559 20.8371 26.3646 19.957 27.5523 19.957C28.043 19.957 28.5156 20.1132 28.9823 20.2749L29.0427 21.1304Z" fill="black"/>
<path d="M29.2618 24.0694H29.3765C29.5464 24.0694 29.6681 24.0694 29.6681 23.8714V20.5385C29.6681 20.1493 29.5771 20.1373 29.3466 20.0716V19.9759C29.589 19.8982 29.8434 19.7903 29.9708 19.7183C30.0369 19.6826 30.0858 19.6523 30.1036 19.6523C30.1407 19.6523 30.1528 19.6885 30.1528 19.7365V23.8714C30.1528 24.0694 30.2859 24.0694 30.4558 24.0694H30.558V24.225C30.3529 24.225 30.1407 24.213 29.9223 24.213C29.7045 24.213 29.4863 24.2189 29.2617 24.225L29.2618 24.0694Z" fill="black"/>
<path d="M33.1525 23.8937C33.1525 24.0019 33.2188 24.0078 33.3217 24.0078C33.3946 24.0078 33.4852 24.0019 33.5643 24.0019V24.1279C33.3034 24.1516 32.8065 24.2774 32.6912 24.313L32.6608 24.2949V23.8107C32.2978 24.1037 32.0186 24.313 31.588 24.313C31.2608 24.313 30.9215 24.1037 30.9215 23.6014V22.0688C30.9215 21.9132 30.8975 21.7635 30.5586 21.7337V21.6199C30.777 21.6141 31.2608 21.5782 31.3399 21.5782C31.4072 21.5782 31.4072 21.6199 31.4072 21.7516V23.2952C31.4072 23.4751 31.4072 23.9897 31.934 23.9897C32.14 23.9897 32.4125 23.8341 32.6668 23.6253V22.0146C32.6668 21.8954 32.3762 21.8297 32.1585 21.7696V21.6619C32.7032 21.6258 33.0432 21.5781 33.1033 21.5781C33.1524 21.5781 33.1524 21.6199 33.1524 21.6861L33.1525 23.8937Z" fill="black"/>
<path d="M34.3581 21.9207C34.6002 21.7173 34.9274 21.4897 35.261 21.4897C35.9641 21.4897 36.3878 22.0948 36.3878 22.7466C36.3878 23.5305 35.8063 24.3146 34.9393 24.3146C34.4911 24.3146 34.2549 24.1708 34.0971 24.1053L33.9156 24.2425L33.7887 24.1771C33.8424 23.824 33.8733 23.4767 33.8733 23.1119V20.5385C33.8733 20.1493 33.7818 20.1373 33.5518 20.0716V19.9759C33.7949 19.8982 34.0486 19.7903 34.176 19.7183C34.2428 19.6826 34.291 19.6523 34.3098 19.6523C34.3459 19.6523 34.358 19.6885 34.358 19.7365L34.3581 21.9207ZM34.3581 23.5483C34.3581 23.7759 34.5759 24.1593 34.9821 24.1593C35.6305 24.1593 35.9031 23.5305 35.9031 22.9977C35.9031 22.3515 35.4067 21.813 34.9338 21.813C34.709 21.813 34.5215 21.9569 34.358 22.0948L34.3581 23.5483Z" fill="black"/>
<path d="M23.8225 18.6241C27.323 18.6407 30.5181 15.805 30.5181 12.3553C30.5181 8.58287 27.323 5.97531 23.8225 5.97656H20.8098C17.2674 5.97531 14.3516 8.58366 14.3516 12.3553C14.3516 15.8058 17.2674 18.6407 20.8098 18.6241H23.8225Z" fill="#0079BE"/>
<path d="M20.8247 6.5C17.5877 6.50102 14.9646 9.09203 14.9639 12.2898C14.9646 15.4871 17.5877 18.0778 20.8247 18.0788C24.0625 18.0778 26.6861 15.4871 26.6866 12.2898C26.6861 9.09203 24.0625 6.50102 20.8247 6.5ZM17.1097 12.2898C17.1128 10.7272 18.101 9.3947 19.4946 8.86518V15.7137C18.101 15.1845 17.1127 13.8527 17.1097 12.2898ZM22.1543 15.7152V8.86495C23.5484 9.39318 24.5382 10.7264 24.5408 12.2898C24.5382 13.8537 23.5484 15.1859 22.1543 15.7152Z" fill="black"/>
<path d="M23.8225 18.6241C27.323 18.6407 30.5181 15.805 30.5181 12.3553C30.5181 8.58287 27.323 5.97531 23.8225 5.97656H20.8098C17.2674 5.97531 14.3516 8.58366 14.3516 12.3553C14.3516 15.8058 17.2674 18.6407 20.8098 18.6241H23.8225Z" fill="#0079BE"/>
<path d="M20.8247 6.5C17.5877 6.50102 14.9646 9.09203 14.9639 12.2898C14.9646 15.4871 17.5877 18.0778 20.8247 18.0788C24.0625 18.0778 26.6861 15.4871 26.6866 12.2898C26.6861 9.09203 24.0625 6.50102 20.8247 6.5ZM17.1097 12.2898C17.1128 10.7272 18.101 9.3947 19.4946 8.86518V15.7137C18.101 15.1845 17.1127 13.8527 17.1097 12.2898ZM22.1543 15.7152V8.86495C23.5484 9.39318 24.5382 10.7264 24.5408 12.2898C24.5382 13.8537 23.5484 15.1859 22.1543 15.7152Z" fill="black"/>
</g>
<defs>
<linearGradient id="paint0_linear_637_225" x1="22.3046" y1="2.45594" x2="22.3046" y2="31.7997" gradientUnits="userSpaceOnUse">
<stop stop-color="#F5F5F5"/>
<stop offset="1" stop-color="white"/>
</linearGradient>
<clipPath id="clip0_637_225">
<rect width="45" height="31.3" fill="white" transform="translate(0 0.5)"/>
</clipPath>
</defs>
</svg>
