<svg width="25" height="26" viewBox="0 0 25 26" fill="none" xmlns="http://www.w3.org/2000/svg">
<path d="M21.875 25.25H2.625C1.14844 25.25 0 24.1016 0 22.625V3.375C0 1.95312 1.14844 0.75 2.625 0.75H21.875C23.2969 0.75 24.5 1.95312 24.5 3.375V22.625C24.5 24.1016 23.2969 25.25 21.875 25.25ZM10.6641 19.8906L20.7266 9.82812C21.0547 9.5 21.0547 8.95312 20.7266 8.625L19.4688 7.36719C19.1406 7.03906 18.5938 7.03906 18.2656 7.36719L10.0625 15.5703L6.17969 11.7422C5.85156 11.4141 5.30469 11.4141 4.97656 11.7422L3.71875 13C3.39062 13.3281 3.39062 13.875 3.71875 14.2031L9.40625 19.8906C9.73438 20.2734 10.3359 20.2734 10.6641 19.8906Z" fill="white"/>
</svg>
