<svg width="29" height="26" viewBox="0 0 29 26" fill="none" xmlns="http://www.w3.org/2000/svg">
<path d="M14.5 0.75C22.2109 0.75 28.5 7.03906 28.5 14.75V17.375C28.5 18.0859 28.0625 18.6875 27.5156 18.9609L26.6953 19.3438C26.5859 22.625 23.9062 25.25 20.625 25.25H19.3125C18.5469 25.25 18 24.7031 18 23.9375V14.3125C18 13.6016 18.5469 13 19.3125 13H20.625C22.3203 13 23.8516 13.7109 25 14.8594V14.75C25 9.00781 20.2422 4.25 14.5 4.25C8.70312 4.25 4 9.00781 4 14.75V14.8594C5.09375 13.7109 6.625 13 8.375 13H9.6875C10.3984 13 11 13.6016 11 14.3125V23.9375C11 24.7031 10.3984 25.25 9.6875 25.25H8.375C5.03906 25.25 2.35938 22.625 2.25 19.3438L1.42969 18.9609C0.882812 18.6875 0.5 18.0859 0.5 17.375V14.75C0.5 7.03906 6.73438 0.75 14.5 0.75Z" fill="white"/>
</svg>
