<svg width="35" height="28" viewBox="0 0 35 28" fill="none" xmlns="http://www.w3.org/2000/svg">
<path d="M34.125 19.25C34.5625 19.25 35 19.6875 35 20.125V21.875C35 22.3672 34.5625 22.75 34.125 22.75H31.5C31.5 25.6484 29.1484 28 26.25 28C23.3516 28 21 25.6484 21 22.75H14C14 25.6484 11.6484 28 8.75 28C5.85156 28 3.5 25.6484 3.5 22.75H2.625C1.14844 22.75 0 21.6016 0 20.125V2.625C0 1.20312 1.14844 0 2.625 0H20.125C21.5469 0 22.75 1.20312 22.75 2.625V5.25H25.1562C25.8125 5.25 26.5234 5.57812 27.0156 6.07031L32.4297 11.4844C32.9219 11.9766 33.25 12.6875 33.25 13.3438V19.25H34.125ZM8.75 25.375C10.1719 25.375 11.375 24.2266 11.375 22.75C11.375 21.3281 10.1719 20.125 8.75 20.125C7.27344 20.125 6.125 21.3281 6.125 22.75C6.125 24.2266 7.27344 25.375 8.75 25.375ZM26.25 25.375C27.6719 25.375 28.875 24.2266 28.875 22.75C28.875 21.3281 27.6719 20.125 26.25 20.125C24.7734 20.125 23.625 21.3281 23.625 22.75C23.625 24.2266 24.7734 25.375 26.25 25.375ZM30.625 14V13.3438L25.1562 7.875H22.75V14H30.625Z" fill="white"/>
</svg>
