<svg width="36" height="22" viewBox="0 0 36 22" fill="none" xmlns="http://www.w3.org/2000/svg">
<path d="M24.2344 0.5C24.7266 0.5 25.1641 0.71875 25.4922 1.04688L28.4453 4V14.6094C28.3359 14.4453 28.1719 14.3359 28.0625 14.1719L20.0781 7.71875L21.5 6.40625C21.8828 6.07812 21.8828 5.53125 21.5547 5.20312C21.2266 4.82031 20.6797 4.82031 20.2969 5.14844L15.9766 9.14062C15.9219 9.14062 15.9219 9.14062 15.9219 9.14062C14.9922 9.96094 13.5703 9.74219 12.8594 8.97656C12.0938 8.15625 12.0938 6.78906 12.9688 5.91406L18.3828 0.992188C18.7109 0.664062 19.0938 0.5 19.5312 0.5H24.2344ZM30.25 4.05469H35.5V18.0547H32C31.0156 18.0547 30.25 17.2344 30.25 16.3047V4.05469ZM32.875 16.3047C33.3125 16.3047 33.75 15.8672 33.75 15.4297C33.75 14.9375 33.3125 14.5547 32.875 14.5547C32.3828 14.5547 32 14.9375 32 15.4297C32 15.8672 32.3828 16.3047 32.875 16.3047ZM0.5 18V4.05469H5.75V16.25C5.75 17.2344 4.92969 18 4 18H0.5ZM3.125 14.5547C2.63281 14.5547 2.25 14.9375 2.25 15.4297C2.25 15.8672 2.63281 16.3047 3.125 16.3047C3.5625 16.3047 4 15.8672 4 15.4297C4 14.9375 3.5625 14.5547 3.125 14.5547ZM26.9141 15.5391C27.6797 16.1406 27.7891 17.2344 27.1875 18L26.6953 18.6562C26.0391 19.4219 24.9453 19.5312 24.2344 18.9297L23.9062 18.6562L22.2109 20.7891C21.5 21.6641 20.1875 21.7734 19.3125 21.0625L18.3828 20.2422H18.3281C17.125 21.7188 14.9375 21.9922 13.4062 20.7344L8.48438 16.25H7.5V4L10.4531 1.04688C10.7812 0.71875 11.2188 0.5 11.7109 0.5H16.3047L11.8203 4.60156C10.2344 6.07812 10.125 8.59375 11.5469 10.1797C13.0234 11.7656 15.4844 11.9297 17.125 10.3984L18.7656 8.92188L26.9141 15.5391Z" fill="white"/>
</svg>
