<svg width="112" height="42" viewBox="0 0 112 42" fill="none" xmlns="http://www.w3.org/2000/svg">
<path d="M102.983 0L99.9028 3.24237L99.9915 5.51022L101.942 6.9057L103.172 13.9217L103.588 12.8847L104.043 3.8102L104.764 3.84875L104.413 10.8262L105.504 8.09688L105.82 3.93356L105.855 3.24237L102.983 0ZM108.341 1.94943L106.545 3.90658L106.395 5.87644L106.803 4.86645L107.975 4.33833C108.098 3.54421 108.218 2.74625 108.341 1.94943ZM110.666 3.922L107.362 5.40229L103.407 15.267L103.97 18.4782H104.27L109.96 7.1794L110.604 7.50322L105.076 18.4782H106.017L111.668 7.22952L110.666 3.922ZM97.5513 4.65058L95.4655 8.4708L98.1296 18.4782H101.738L99.7679 7.88485L100.473 7.75379L102.47 18.4782H103.237L101.283 7.32204L97.5513 4.65058ZM111.364 14.6888L108.827 14.4883L106.907 18.3124L109.598 16.8977L111.364 14.6888ZM94.5576 13.6094L96.1948 18.4936H97.3894L96.3062 14.4305L94.5576 13.6094Z" fill="url(#paint0_linear_73_1096)"/>
<path d="M38.1436 21.6133L35.0635 24.8557L35.1522 27.1235L37.1027 28.519L38.3325 35.5349L38.7488 34.498L39.2037 25.4235L39.9245 25.462L39.5738 32.4394L40.6647 29.7102L40.9808 25.5468L41.0155 24.8557L38.1436 21.6133ZM43.5019 23.5627L41.7055 25.5199L41.5552 27.4897L41.9638 26.4797L43.1357 25.9516C43.2591 25.1575 43.3786 24.3595 43.5019 23.5627ZM45.8264 25.5353L42.5228 27.0156L38.5676 36.8803L39.1304 40.0915H39.4311L45.121 28.7927L45.7648 29.1165L40.2368 40.0915H41.1774L46.8287 28.8428L45.8264 25.5353ZM32.712 26.2639L30.6261 30.0841L33.2902 40.0915H36.8984L34.9286 29.4981L35.634 29.3671L37.6309 40.0915H38.398L36.4436 28.9353L32.712 26.2639ZM46.5242 36.3021L43.9876 36.1016L42.0679 39.9257L44.7586 38.5109L46.5242 36.3021ZM29.7183 35.2227L31.3554 40.1069H32.5501L31.4669 36.0438L29.7183 35.2227Z" fill="url(#paint1_linear_73_1096)"/>
<path d="M8.186 18.8281C4.14974 18.8281 0.972594 15.2619 0.972594 10.399C0.972594 5.53598 4.14974 1.9698 8.186 1.9698C11.8981 1.9698 13.1624 3.89878 13.1624 5.37388C13.1624 8.74554 8.57504 9.94508 8.57504 11.8741C8.57504 12.3766 8.73714 12.6521 9.06134 12.9277C8.186 13.1222 7.65107 12.1658 7.65107 11.4202C7.65107 8.56724 12.2061 7.61085 12.2061 5.24421C12.2061 3.31523 10.8931 2.16432 8.186 2.16432C4.83055 2.16432 2.43149 5.66566 2.43149 10.399C2.43149 15.1322 5.05749 18.6336 8.186 18.6336C11.7846 18.6336 12.8058 15.9103 12.8058 15.9103H12.9841V18.0824C11.6873 18.5039 10.2609 18.8281 8.186 18.8281ZM14.5138 18.5039V18.3418C15.9078 18.3418 16.0051 17.1909 16.0051 13.9976V6.80036C16.0051 3.60701 15.9078 2.4561 14.5138 2.4561V2.294H16.459C18.242 2.294 19.393 1.9698 21.2733 1.9698C24.726 1.9698 26.655 3.88257 26.655 6.52479C26.655 8.74554 24.8395 10.7556 22.019 10.7556C20.4952 10.7556 19.4578 9.71814 18.777 9.71814C18.5825 9.71814 18.3069 9.76677 18.3069 10.1396C18.3069 11.1932 21.7272 11.4202 23.0402 13.4626C24.3208 15.4564 25.8283 18.3418 27.6762 18.3418V18.5039H25.1961C24.4504 18.5039 23.9966 17.4827 21.4354 13.6409C19.863 11.2743 18.1448 11.2095 18.1448 10.1072C18.1448 9.71814 18.4204 9.55604 18.7121 9.55604C19.6685 9.55604 20.4142 10.48 21.9217 10.48C23.9479 10.48 25.2609 8.48619 25.2609 6.541C25.2609 3.85015 23.3644 2.19674 20.3493 2.19674C19.1498 2.19674 18.3717 2.35884 17.3829 2.71546V13.9976C17.3829 17.1909 17.4802 18.3418 18.8742 18.3418V18.5039H14.5138ZM27.4059 2.4561V2.294H31.9123V2.4561H31.5557C31.1018 2.4561 30.6803 2.66683 30.6803 3.31523C30.6803 4.4175 33.6792 9.34531 34.6842 11.3067C35.8026 9.18321 38.5259 4.27161 38.5259 3.20176C38.5259 2.6182 38.072 2.4561 37.6182 2.4561H37.1967V2.294H40.6656V2.4561C39.4337 2.4561 39.0446 3.67185 37.5695 6.49237C36.5645 8.37272 35.2839 10.5773 34.7328 11.6471V13.9976C34.7328 17.1909 34.8301 18.3418 36.2241 18.3418V18.5039H31.8474V18.3418C33.2415 18.3418 33.3387 17.1909 33.3387 13.9976V11.6471C32.7876 10.5773 31.507 8.37272 30.502 6.49237C29.0269 3.67185 28.6379 2.4561 27.4059 2.4561ZM41.377 6.18438C41.377 3.9312 43.4357 1.9698 47.1802 1.9698C49.174 1.9698 50.5518 2.294 51.8 2.71546V4.88759H51.6379C51.6379 4.88759 50.6491 2.16432 47.1802 2.16432C44.1651 2.16432 42.5117 3.99604 42.5117 5.79534C42.5117 10.2369 52.7564 8.66449 52.7564 14.338C52.7564 16.5911 50.4222 18.8281 46.6777 18.8281C44.538 18.8281 42.6414 17.742 41.4419 16.8505V14.6784H41.604C41.604 14.6784 43.7275 18.5363 47.5854 18.5363C49.9521 18.5363 51.8162 16.8019 51.8162 15.0026C51.8162 10.1234 41.377 11.5012 41.377 6.18438ZM54.7599 2.294H66.0906V4.48234H65.9285C65.9285 4.43371 65.9448 4.48234 65.9448 4.4175C65.9448 3.33144 63.9023 2.4561 61.1142 2.4561V13.9976C61.1142 17.1909 61.0818 18.3418 62.4758 18.3418V18.5039H58.245V18.3418C59.6391 18.3418 59.7364 17.1909 59.7364 13.9976V2.4561C56.9483 2.4561 54.9058 3.33144 54.9058 4.4175C54.9058 4.48234 54.922 4.43371 54.922 4.48234H54.7599V2.294ZM65.4948 15.6672C65.4948 11.6795 71.9787 10.1558 71.9787 8.46998C71.9787 8.16199 71.8004 8.03231 71.5897 8.03231C70.8116 8.03231 70.3253 9.73435 69.4013 9.73435C68.9475 9.73435 68.8664 9.29668 69.0285 8.87522C70.0173 6.26543 70.6171 4.66065 71.6383 1.9698H71.8004L76.9876 15.6672C77.7008 17.4503 78.2195 18.3418 79.2083 18.3418V18.5039H73.8915V18.3418C76.1771 18.3418 76.096 17.0288 75.4801 15.3916L73.47 10.091C73.5349 10.6097 73.5673 11.2581 73.5673 12.0362C73.5673 15.9752 71.6707 18.8281 68.445 18.8281C66.5646 18.8281 65.4948 17.353 65.4948 15.6672ZM66.8726 15.3592C66.8726 16.8829 67.829 18.05 69.4176 18.05C72.1246 18.05 73.4052 14.727 73.4052 12.0686C73.4052 10.869 73.3566 9.9775 73.0648 9.02111L71.1034 3.85015L69.2392 8.81038C69.0285 9.37773 69.1582 9.57225 69.4176 9.57225C70.1632 9.57225 70.763 7.87021 71.6221 7.87021C71.9301 7.87021 72.157 8.08094 72.157 8.5024C72.157 10.6745 66.8726 11.3553 66.8726 15.3592ZM80.2346 2.294H84.6113V2.4561C83.2172 2.4561 83.1199 3.60701 83.1199 6.80036V18.3418H85.1786C86.7185 18.3418 91.6626 18.1635 91.6626 15.8293H91.8247V18.5039H80.2346V18.3418C81.6286 18.3418 81.7259 17.1909 81.7259 13.9976V6.80036C81.7259 3.60701 81.6286 2.4561 80.2346 2.4561V2.294Z" fill="white"/>
<path d="M47.8012 30.2115C47.8012 25.3485 50.9783 21.7823 55.0146 21.7823C57.0084 21.7823 58.3863 22.1065 59.6344 22.528V24.7001H59.4723C59.4723 24.7001 58.4835 21.9768 55.0146 21.9768C51.6592 21.9768 49.2601 25.4782 49.2601 30.2115C49.2601 34.9447 51.8861 38.4461 55.0146 38.4461C57.8676 38.4461 59.0995 35.966 59.0995 35.3824V33.0968C59.0995 29.9359 56.0358 30.406 53.8637 30.406C52.6804 30.406 51.7564 30.2601 51.7564 29.3037C51.7564 27.9259 53.2477 27.2613 54.2203 27.2613C56.6356 27.2613 57.9648 28.7364 60.0559 28.7364C61.1906 28.7364 61.2392 28.2501 61.2392 28.2501C61.4986 29.2713 60.607 29.8386 59.602 29.8386C57.6568 29.8386 55.4685 28.2825 53.8637 28.2825C52.8587 28.2825 51.9347 28.6229 51.9347 29.3848C51.9347 30.4708 53.9123 30.2115 55.9548 30.2115C58.1755 30.2115 60.4936 30.5032 60.4936 33.0968V35.431C59.2616 37.4735 57.3326 38.6406 55.0146 38.6406C50.9783 38.6406 47.8012 35.0744 47.8012 30.2115ZM62.7829 22.1065H67.1596V22.2686C65.7655 22.2686 65.6683 23.4195 65.6683 26.6129V38.1543H67.7269C69.2669 38.1543 74.2109 37.976 74.2109 35.6418H74.373V38.3164H62.7829V38.1543C64.177 38.1543 64.2742 37.0034 64.2742 33.8101V26.6129C64.2742 23.4195 64.177 22.2686 62.7829 22.2686V22.1065ZM82.6263 38.6406C78.5901 38.6406 75.4129 35.0744 75.4129 30.2115C75.4129 25.3485 78.5901 21.7823 82.6263 21.7823C86.6626 21.7823 89.8397 25.3485 89.8397 30.2115C89.8397 35.0744 86.6626 38.6406 82.6263 38.6406ZM82.6263 21.9768C79.2709 21.9768 76.8718 25.4782 76.8718 30.2115C76.8718 34.9447 79.4978 38.4461 82.6263 38.4461C85.7548 38.4461 88.3808 34.9447 88.3808 30.2115C88.3808 25.4782 85.9818 21.9768 82.6263 21.9768ZM90.0508 22.2686V22.1065H95.3676V22.2686C93.082 22.2686 93.1631 23.5816 93.7791 25.2188L98.1557 36.7603C98.9987 34.3774 99.9064 31.9945 100.782 29.5955L99.0149 24.9432C98.3016 23.1601 97.7829 22.2686 96.7941 22.2686V22.1065H105.029V22.2686C104.04 22.2686 103.489 23.1439 102.808 24.9432L101.608 28.1042L104.899 36.7603C106.244 32.9347 107.768 29.1092 109.016 25.2674C109.438 23.9706 109.47 22.2686 107.185 22.2686V22.1065H111.772V22.2686C110.783 22.2686 110.232 23.1439 109.551 24.9432L104.364 38.6406H104.202L100.911 29.9521L97.6208 38.6406H97.4587L92.2716 24.9432C91.5583 23.1601 91.0396 22.2686 90.0508 22.2686ZM101.236 22.2848C99.6795 22.2848 99.9875 23.8248 100.522 25.2188L101.463 27.6827C101.738 26.8884 101.997 26.0779 102.273 25.2674C102.646 24.149 103.116 22.2848 101.236 22.2848Z" fill="white"/>
<defs>
<linearGradient id="paint0_linear_73_1096" x1="103.113" y1="0" x2="103.113" y2="18.4936" gradientUnits="userSpaceOnUse">
<stop stop-color="white"/>
<stop offset="1" stop-color="#999999"/>
</linearGradient>
<linearGradient id="paint1_linear_73_1096" x1="38.2735" y1="21.6133" x2="38.2735" y2="40.1069" gradientUnits="userSpaceOnUse">
<stop stop-color="white"/>
<stop offset="1" stop-color="#999999"/>
</linearGradient>
</defs>
</svg>
