<svg width="20" height="20" viewBox="0 0 20 20" fill="none" xmlns="http://www.w3.org/2000/svg">
<path d="M10.0055 9.67115C12.4885 9.67115 14.5125 7.45969 14.5125 4.76792C14.5125 2.09706 12.5094 0 10.0055 0C7.53269 0 5.49839 2.13891 5.49839 4.78884C5.50863 7.46993 7.53269 9.67115 10.0055 9.67115ZM10.0055 8.0958C8.48218 8.0958 7.17791 6.63573 7.17791 4.78839C7.17791 2.97355 8.46125 1.57536 10.0055 1.57536C11.5701 1.57536 12.8325 2.95263 12.8325 4.76792C12.8325 6.61436 11.5492 8.0958 10.0055 8.0958ZM3.45341 19.3223H16.5575C18.2891 19.3223 19.1135 18.8001 19.1135 17.653C19.1135 14.9189 15.6703 10.9652 10.0055 10.9652C4.34013 10.9652 0.886719 14.9194 0.886719 17.6525C0.886719 18.8001 1.71112 19.3223 3.45341 19.3223ZM2.95262 17.746C2.68109 17.746 2.56668 17.673 2.56668 17.454C2.56668 15.7429 5.21661 12.5396 10.005 12.5396C14.7943 12.5396 17.4335 15.7429 17.4335 17.454C17.4335 17.673 17.3294 17.746 17.0583 17.746H2.95262Z" fill="white"/>
</svg>
