<svg width="31" height="31" viewBox="0 0 31 31" fill="none" xmlns="http://www.w3.org/2000/svg">
<path d="M25.0249 27.0103V25.0154C25.0249 24.3269 24.8919 23.6776 24.6259 23.0674C24.3599 22.4572 24.0079 21.9252 23.5698 21.4714C23.116 21.0177 22.584 20.6617 21.9738 20.4035C21.3636 20.1454 20.7143 20.0163 20.0258 20.0163H11.9991C11.3106 20.0163 10.6613 20.1454 10.0511 20.4035C9.44087 20.6617 8.90889 21.0177 8.45514 21.4714C8.01703 21.9252 7.66498 22.4572 7.39899 23.0674C7.133 23.6776 7 24.3269 7 25.0154V27.0103C7 27.292 7.09779 27.5306 7.29337 27.7262C7.48896 27.9217 7.72757 28.0195 8.00921 28.0195C8.2752 28.0195 8.50599 27.9217 8.70157 27.7262C8.89715 27.5306 8.99494 27.292 8.99494 27.0103V25.0154C8.99494 24.5929 9.07318 24.2018 9.22964 23.8419C9.38611 23.482 9.60516 23.1691 9.8868 22.9031C10.1528 22.6214 10.4696 22.4024 10.8373 22.2459C11.205 22.0895 11.5923 22.0112 11.9991 22.0112H20.0258C20.4326 22.0112 20.8199 22.0895 21.1876 22.2459C21.5553 22.4024 21.8721 22.6214 22.1381 22.9031C22.4197 23.1691 22.6388 23.482 22.7953 23.8419C22.9517 24.2018 23.03 24.5929 23.03 25.0154V27.0103C23.03 27.292 23.1278 27.5306 23.3233 27.7262C23.5189 27.9217 23.7497 28.0195 24.0157 28.0195C24.2973 28.0195 24.5359 27.9217 24.7315 27.7262C24.9271 27.5306 25.0249 27.292 25.0249 27.0103ZM21.0115 12.9988C21.0115 12.3103 20.8825 11.661 20.6243 11.0508C20.3661 10.4406 20.0102 9.90857 19.5564 9.45482C19.1027 9.00107 18.5707 8.64511 17.9605 8.38694C17.3502 8.12877 16.7009 7.99969 16.0125 7.99969C15.324 7.99969 14.6747 8.12877 14.0644 8.38694C13.4542 8.64511 12.9222 9.00107 12.4685 9.45482C12.0147 9.90857 11.6588 10.4406 11.4006 11.0508C11.1424 11.661 11.0134 12.3103 11.0134 12.9988C11.0134 13.6872 11.1424 14.3366 11.4006 14.9468C11.6588 15.557 12.0147 16.089 12.4685 16.5427C12.9222 16.9965 13.4542 17.3525 14.0644 17.6106C14.6747 17.8688 15.324 17.9979 16.0125 17.9979C16.7009 17.9979 17.3502 17.8688 17.9605 17.6106C18.5707 17.3525 19.1027 16.9965 19.5564 16.5427C20.0102 16.089 20.3661 15.557 20.6243 14.9468C20.8825 14.3366 21.0115 13.6872 21.0115 12.9988ZM19.0166 12.9988C19.0166 13.4212 18.9384 13.8124 18.7819 14.1723C18.6254 14.5321 18.4064 14.8451 18.1247 15.1111C17.8588 15.3927 17.5458 15.6118 17.1859 15.7682C16.8261 15.9247 16.4349 16.0029 16.0125 16.0029C15.59 16.0029 15.1988 15.9247 14.839 15.7682C14.4791 15.6118 14.1662 15.3927 13.9002 15.1111C13.6185 14.8451 13.3995 14.5321 13.243 14.1723C13.0865 13.8124 13.0083 13.4212 13.0083 12.9988C13.0083 12.5763 13.0865 12.1852 13.243 11.8253C13.3995 11.4654 13.6185 11.1525 13.9002 10.8865C14.1662 10.6048 14.4791 10.3858 14.839 10.2293C15.1988 10.0729 15.59 9.99463 16.0125 9.99463C16.4349 9.99463 16.8261 10.0729 17.1859 10.2293C17.5458 10.3858 17.8588 10.6048 18.1247 10.8865C18.4064 11.1525 18.6254 11.4654 18.7819 11.8253C18.9384 12.1852 19.0166 12.5763 19.0166 12.9988Z" fill="#D8BCAB"/>
<circle cx="15.5" cy="15.5" r="15" stroke="white"/>
</svg>
