<svg width="120" height="120" viewBox="0 0 120 120" fill="none" xmlns="http://www.w3.org/2000/svg">
<rect width="120" height="120" rx="60" fill="url(#paint0_radial_73_1169)"/>
<path d="M60.0005 35.4217C67.9523 35.4217 69.0366 35.4217 72.2896 35.4217C75.1812 35.4217 76.627 36.1446 77.7113 36.506C79.1571 37.2289 80.2415 37.5904 81.3258 38.6747C82.4101 39.759 83.133 40.8434 83.4945 42.2892C83.8559 43.3735 84.2174 44.8193 84.5788 47.7108C84.5788 50.9639 84.5788 51.6867 84.5788 60C84.5788 68.3133 84.5788 69.0362 84.5788 72.2892C84.5788 75.1807 83.8559 76.6265 83.4945 77.7108C82.7716 79.1566 82.4101 80.241 81.3258 81.3253C80.2415 82.4096 79.1571 83.1325 77.7113 83.494C76.627 83.8554 75.1812 84.2169 72.2896 84.5783C69.0366 84.5783 68.3137 84.5783 60.0005 84.5783C51.6872 84.5783 50.9643 84.5783 47.7113 84.5783C44.8198 84.5783 43.374 83.8554 42.2896 83.494C40.8439 82.7711 39.7595 82.4096 38.6752 81.3253C37.5909 80.241 36.868 79.1566 36.5065 77.7108C36.1451 76.6265 35.7836 75.1807 35.4222 72.2892C35.4222 69.0362 35.4222 68.3133 35.4222 60C35.4222 51.6867 35.4222 50.9639 35.4222 47.7108C35.4222 44.8193 36.1451 43.3735 36.5065 42.2892C37.2294 40.8434 37.5909 39.759 38.6752 38.6747C39.7595 37.5904 40.8439 36.8675 42.2896 36.506C43.374 36.1446 44.8198 35.7831 47.7113 35.4217C50.9643 35.4217 52.0487 35.4217 60.0005 35.4217ZM60.0005 30C51.6872 30 50.9643 30 47.7113 30C44.4583 30 42.2896 30.7229 40.4824 31.4458C38.6752 32.1687 36.868 33.253 35.0607 35.0602C33.2535 36.8675 32.5306 38.3133 31.4463 40.4819C30.7234 42.2892 30.3619 44.4578 30.0005 47.7108C30.0005 50.9639 30.0005 52.0482 30.0005 60C30.0005 68.3133 30.0005 69.0362 30.0005 72.2892C30.0005 75.5422 30.7234 77.7108 31.4463 79.5181C32.1692 81.3253 33.2535 83.1325 35.0607 84.9398C36.868 86.747 38.3137 87.4699 40.4824 88.5542C42.2896 89.2771 44.4583 89.6386 47.7113 90C50.9643 90 52.0487 90 60.0005 90C67.9523 90 69.0366 90 72.2896 90C75.5427 90 77.7113 89.2771 79.5186 88.5542C81.3258 87.8313 83.133 86.747 84.9403 84.9398C86.7475 83.1325 87.4704 81.6868 88.5547 79.5181C89.2776 77.7108 89.639 75.5422 90.0005 72.2892C90.0005 69.0362 90.0005 67.9518 90.0005 60C90.0005 52.0482 90.0005 50.9639 90.0005 47.7108C90.0005 44.4578 89.2776 42.2892 88.5547 40.4819C87.8318 38.6747 86.7475 36.8675 84.9403 35.0602C83.133 33.253 81.6872 32.5301 79.5186 31.4458C77.7113 30.7229 75.5427 30.3614 72.2896 30C69.0366 30 68.3137 30 60.0005 30Z" fill="white"/>
<path d="M60.0005 44.4578C51.3258 44.4578 44.4583 51.3253 44.4583 60C44.4583 68.6747 51.3258 75.5422 60.0005 75.5422C68.6752 75.5422 75.5427 68.6747 75.5427 60C75.5427 51.3253 68.6752 44.4578 60.0005 44.4578ZM60.0005 70.1205C54.5788 70.1205 49.88 65.7831 49.88 60C49.88 54.5783 54.2174 49.8795 60.0005 49.8795C65.4222 49.8795 70.121 54.2169 70.121 60C70.121 65.4217 65.4222 70.1205 60.0005 70.1205Z" fill="white"/>
<path d="M75.9041 47.7108C77.9003 47.7108 79.5186 46.0926 79.5186 44.0964C79.5186 42.1002 77.9003 40.4819 75.9041 40.4819C73.9079 40.4819 72.2896 42.1002 72.2896 44.0964C72.2896 46.0926 73.9079 47.7108 75.9041 47.7108Z" fill="white"/>
<defs>
<radialGradient id="paint0_radial_73_1169" cx="0" cy="0" r="1" gradientUnits="userSpaceOnUse" gradientTransform="translate(122.414 2.4375) scale(277.116)">
<stop stop-color="#F9ED32"/>
<stop offset="0.36" stop-color="#EE2A7B"/>
<stop offset="0.44" stop-color="#D22A8A"/>
<stop offset="0.6" stop-color="#8B2AB2"/>
<stop offset="0.83" stop-color="#1B2AF0"/>
<stop offset="0.88" stop-color="#002AFF"/>
</radialGradient>
</defs>
</svg>
