<svg width="120" height="120" viewBox="0 0 120 120" fill="none" xmlns="http://www.w3.org/2000/svg">
<rect width="120" height="120" rx="60" fill="#2878B7"/>
<path d="M84 62.2332V78.7803H74.3139V63.2422C74.3139 59.4081 72.9013 56.7848 69.4709 56.7848C66.8475 56.7848 65.2332 58.6009 64.6278 60.2153C64.426 60.8206 64.2242 61.6278 64.2242 62.6368V78.7803H54.5381C54.5381 78.7803 54.7399 52.5471 54.5381 49.9238H64.2242V53.9596C65.435 51.9417 67.8565 49.1166 72.9013 49.1166C79.157 49.1166 84 53.3543 84 62.2332ZM44.4484 36C41.2197 36 39 38.2197 39 41.0448C39 43.87 41.0179 46.0897 44.2466 46.0897C47.6771 46.0897 49.6951 43.87 49.6951 41.0448C49.8969 38.0179 47.8789 36 44.4484 36ZM39.6054 78.7803H49.2915V49.9238H39.6054V78.7803Z" fill="white"/>
</svg>
