<svg width="17" height="16" viewBox="0 0 17 16" fill="none" xmlns="http://www.w3.org/2000/svg">
<g clip-path="url(#clip0_637_183)">
<path d="M16.0345 6.2767C16.0345 6.04704 15.8571 5.90089 15.5021 5.83826L10.6479 5.11796L8.48703 0.733512C8.36176 0.482972 8.20518 0.357702 8.01727 0.357702C7.82937 0.357702 7.67278 0.482972 7.54751 0.733512L5.3866 5.11796L0.532397 5.83826C0.177466 5.90089 0 6.04704 0 6.2767C0 6.42285 0.0835132 6.57944 0.25054 6.74646L3.7581 10.1601L2.91252 14.983C2.91252 15.0665 2.91252 15.1291 2.91252 15.1709C2.91252 15.2961 2.94384 15.4057 3.00648 15.4997C3.06911 15.5936 3.1735 15.6406 3.31965 15.6406C3.42404 15.6406 3.54931 15.5989 3.69546 15.5154L8.01727 13.2605L12.3391 15.5154C12.4852 15.5989 12.6105 15.6406 12.7149 15.6406C12.861 15.6406 12.9654 15.5936 13.0281 15.4997C13.0907 15.4057 13.122 15.2961 13.122 15.1709C13.122 15.0873 13.122 15.0247 13.122 14.983L12.2764 10.1601L15.784 6.74646C15.951 6.57944 16.0345 6.42285 16.0345 6.2767Z" fill="#FFC200"/>
</g>
<defs>
<clipPath id="clip0_637_183">
<rect width="16.61" height="16" fill="white" transform="matrix(1 0 0 -1 0 16)"/>
</clipPath>
</defs>
</svg>
